<mxfile host="app.diagrams.net" modified="2024-04-03T14:26:35.291Z" agent="Mozilla/5.0 (X11; Linux x86_64; rv:109.0) Gecko/20100101 Firefox/115.0" version="24.2.0" etag="vSMpqy87KjmnYN_UupmG" type="github">
  <diagram name="Page-1" id="72cGVLPDXRpsY4pruUtv">
    <mxGraphModel>
      <root>
        <mxCell id="0" />
        <mxCell id="1" parent="0" />
      </root>
    </mxGraphModel>
  </diagram>
</mxfile>
